<?xml version="1.0" encoding="UTF-8" standalone="no"?>
<svg
   xmlns:dc="http://purl.org/dc/elements/1.1/"
   xmlns:cc="http://creativecommons.org/ns#"
   xmlns:rdf="http://www.w3.org/1999/02/22-rdf-syntax-ns#"
   xmlns:svg="http://www.w3.org/2000/svg"
   xmlns="http://www.w3.org/2000/svg"
   xmlns:sodipodi="http://sodipodi.sourceforge.net/DTD/sodipodi-0.dtd"
   xmlns:inkscape="http://www.inkscape.org/namespaces/inkscape"
   version="1.1"
   id="svg2"
   xml:space="preserve"
   width="310"
   height="520"
   viewBox="0 0 310 520"
   sodipodi:docname="Logo Hackagou-Test.svg"
   inkscape:version="1.0.2 (e86c870879, 2021-01-15)"><metadata
     id="metadata8"><rdf:RDF><cc:Work
         rdf:about=""><dc:format>image/svg+xml</dc:format><dc:type
           rdf:resource="http://purl.org/dc/dcmitype/StillImage" /><dc:title></dc:title></cc:Work></rdf:RDF></metadata><defs
     id="defs6"><clipPath
       clipPathUnits="userSpaceOnUse"
       id="clipPath18"><path
         d="M 0,283.465 H 283.465 V 0 H 0 Z"
         id="path16" /></clipPath></defs><sodipodi:namedview
     pagecolor="#d3d3d3"
     bordercolor="#eeeeee"
     borderopacity="1"
     objecttolerance="10"
     gridtolerance="10"
     guidetolerance="10"
     inkscape:pageopacity="0"
     inkscape:pageshadow="2"
     inkscape:window-width="1920"
     inkscape:window-height="1025"
     id="namedview4"
     showgrid="false"
     fit-margin-top="5"
     fit-margin-left="5"
     fit-margin-right="0"
     fit-margin-bottom="0"
     inkscape:zoom="1.0289025"
     inkscape:cx="249.17061"
     inkscape:cy="323.2948"
     inkscape:window-x="1920"
     inkscape:window-y="29"
     inkscape:window-maximized="0"
     inkscape:current-layer="g10"
     inkscape:document-rotation="0" /><g
     id="g10"
     inkscape:groupmode="layer"
     inkscape:label="Logo Hackagou"
     transform="matrix(1.3333333,0,0,-1.3333333,-48.474524,343.85999)"
     style="display:inline;opacity:1;mix-blend-mode:normal"><g
       id="g12"
       style="display:inline"
       transform="matrix(2.5031558,0,0,2.5031558,-58.493481,-383.2525)"><g
         id="g14"
         clip-path="url(#clipPath18)"
         style="display:inline"><g
           id="g56"
           transform="translate(125.9109,183.9357)"
           style="display:inline"><path
             d="m 0,0 v 0 c 1.593,0 2.722,-1.247 2.744,-3.032 0.01,-0.789 0.007,-1.579 0.004,-2.369 L 2.747,-6.455 c -0.471,-9.667 -1.793,-19.191 -3.929,-28.305 -0.371,-1.582 -1.1,-2.389 -2.364,-2.619 -0.188,-0.034 -0.378,-0.052 -0.565,-0.052 -1.005,0 -1.912,0.492 -2.426,1.315 -0.433,0.694 -0.519,1.493 -0.271,2.517 1.603,6.615 2.549,13.393 3.264,19.151 0.162,1.305 -0.23,2.602 -1.074,3.558 -0.774,0.876 -1.838,1.359 -2.996,1.359 -0.639,0 -1.293,-0.147 -1.942,-0.436 -4.088,-1.82 -8.266,-3.625 -12.307,-5.371 -3.902,-1.685 -7.937,-3.428 -11.889,-5.184 -0.962,-0.428 -1.797,-0.627 -2.626,-0.627 -0.784,0 -1.581,0.186 -2.436,0.568 -5.744,2.567 -11.616,5.101 -17.294,7.552 -2.058,0.888 -4.115,1.776 -6.172,2.667 l -0.266,0.117 c -0.416,0.182 -0.847,0.371 -1.298,0.523 -0.439,0.147 -0.892,0.222 -1.344,0.222 -1.166,0 -2.272,-0.497 -3.033,-1.363 -0.752,-0.855 -1.083,-1.962 -0.934,-3.118 0.428,-3.308 0.927,-6.66 1.408,-9.902 0.184,-1.241 0.369,-2.482 0.55,-3.722 0.308,-2.116 1.527,-3.4 3.725,-3.926 14.115,-3.378 28.225,-6.779 42.335,-10.179 l 12.957,-3.123 c 1.248,-0.3 2.121,-0.869 2.524,-1.645 0.356,-0.684 0.345,-1.514 -0.03,-2.467 -3.576,-9.065 -8.116,-16.179 -13.882,-21.746 -4.263,-4.116 -9.322,-7.186 -15.038,-9.123 -0.578,-0.196 -1.133,-0.292 -1.695,-0.292 -0.588,0 -1.187,0.105 -1.832,0.32 -8.184,2.732 -14.934,7.823 -20.637,15.566 -3.416,4.639 -5.869,9.676 -7.817,13.992 -0.115,0.255 -0.214,0.561 -0.303,0.936 -0.431,1.824 0.228,3.197 1.763,3.672 0.285,0.088 0.574,0.132 0.859,0.132 1.215,0 2.313,-0.786 2.937,-2.103 0.33,-0.695 0.655,-1.393 0.98,-2.092 1.239,-2.661 2.52,-5.413 4.048,-7.98 3.989,-6.708 9.192,-11.741 15.462,-14.959 l 0.093,-0.047 c 0.074,-0.037 0.149,-0.074 0.219,-0.117 1.336,-0.826 2.658,-1.228 4.041,-1.228 1.306,0 2.656,0.363 4.127,1.108 6.321,3.202 11.52,8.131 15.895,15.069 0.759,1.203 1.377,2.226 1.931,3.31 0.699,1.366 0.801,2.737 0.289,3.858 -0.509,1.116 -1.601,1.931 -3.076,2.296 -4.371,1.08 -8.822,2.151 -13.125,3.185 l -1.54,0.371 c -2.811,0.676 -5.622,1.347 -8.433,2.018 -2.443,0.584 -4.887,1.167 -7.329,1.754 -2.164,0.52 -4.328,1.043 -6.491,1.566 -4.82,1.166 -9.805,2.372 -14.719,3.516 -1.709,0.398 -2.6,1.313 -2.978,3.061 -1.588,7.331 -2.598,14.22 -3.088,21.061 -0.205,2.863 -0.338,5.694 -0.397,8.414 -0.025,1.162 0.271,2.091 0.854,2.687 0.45,0.459 1.07,0.702 1.793,0.702 0.558,0 1.164,-0.14 1.801,-0.416 6.665,-2.887 13.327,-5.779 19.99,-8.671 l 11.054,-4.797 c 0.257,-0.111 0.516,-0.217 0.776,-0.323 0.334,-0.136 0.669,-0.273 0.998,-0.422 0.584,-0.267 1.188,-0.402 1.794,-0.402 0.625,0 1.273,0.145 1.927,0.429 3.531,1.537 7.065,3.068 10.599,4.598 2.451,1.062 4.903,2.124 7.354,3.188 1.806,0.784 3.611,1.572 5.416,2.359 3.207,1.4 6.415,2.8 9.631,4.181 C -0.949,-0.106 -0.466,0 0,0"
             style="fill:#545455;fill-opacity:1;fill-rule:nonzero;stroke:none"
             id="path58" /></g><g
           id="g60"
           transform="translate(89.8872,198.4758)"
           style="display:inline"><path
             d="m 0,0 c 7.242,-0.131 13.245,-2.809 18.352,-8.185 1.222,-1.287 2.162,-2.473 2.875,-3.628 0.5,-0.808 0.573,-1.739 0.203,-2.554 -0.387,-0.851 -1.175,-1.433 -2.163,-1.596 -0.17,-0.028 -0.338,-0.043 -0.498,-0.043 -0.915,0 -1.697,0.47 -2.391,1.435 -1.713,2.386 -3.76,4.364 -6.083,5.881 -3.02,1.971 -6.405,3.013 -9.791,3.013 -4.512,10e-4 -8.806,-1.773 -12.418,-5.128 -1.421,-1.319 -2.633,-2.866 -3.812,-4.37 -0.69,-0.881 -1.618,-1.386 -2.545,-1.386 -0.51,0 -0.996,0.15 -1.443,0.445 -0.638,0.422 -1.066,1.054 -1.205,1.781 -0.147,0.765 0.04,1.569 0.524,2.264 4.623,6.631 10.235,10.461 17.158,11.709 0.877,0.158 1.779,0.235 2.504,0.296 C -0.46,-0.043 -0.212,-0.022 0,0"
             style="fill:#545455;fill-opacity:1;fill-rule:nonzero;stroke:none"
             id="path62" /></g><g
           id="g64"
           transform="translate(67.2455,239.3905)"
           style="display:inline"><path
             d="m 0,0 c 0.164,0 0.326,-0.02 0.48,-0.06 3.181,-0.817 6.097,-1.949 8.669,-3.363 9.89,-5.439 16.959,-14.808 19.393,-25.707 0.153,-0.685 -0.108,-1.254 -0.354,-1.611 -0.47,-0.683 -1.292,-1.201 -2.093,-1.318 -0.123,-0.018 -0.243,-0.026 -0.36,-0.026 -1.411,0 -2.322,1.253 -2.6,2.496 l -0.045,0.201 c -0.039,0.153 -0.078,0.307 -0.119,0.46 -0.103,0.387 -0.214,0.772 -0.331,1.155 -0.232,0.759 -0.496,1.522 -0.784,2.27 -0.285,0.74 -0.601,1.483 -0.94,2.208 -0.169,0.362 -0.344,0.722 -0.526,1.078 -0.056,0.111 -0.113,0.222 -0.171,0.332 -0.031,0.069 -0.083,0.16 -0.158,0.296 -0.772,1.353 -1.595,2.623 -2.446,3.775 -0.474,0.641 -0.975,1.276 -1.49,1.886 -0.259,0.306 -0.522,0.608 -0.79,0.906 -0.118,0.131 -0.238,0.261 -0.367,0.4 l -0.125,0.129 c -1.229,1.236 -2.396,2.287 -3.569,3.212 -0.545,0.431 -1.112,0.853 -1.686,1.255 -0.215,0.151 -0.434,0.297 -0.652,0.443 L 8.59,-9.351 c -0.136,0.086 -0.304,0.194 -0.304,0.194 l -0.302,0.183 c -1.381,0.821 -2.821,1.55 -4.28,2.166 -0.738,0.312 -1.492,0.6 -2.243,0.856 -0.185,0.063 -0.371,0.124 -0.599,0.197 l -0.078,0.023 c -0.385,0.109 -0.77,0.215 -1.158,0.315 -1.551,0.399 -2.432,1.635 -2.244,3.149 C -2.47,-1.081 -1.223,0 0,0"
             style="fill:#545455;fill-opacity:1;fill-rule:nonzero;stroke:none"
             id="path66" /></g><g
           id="g68"
           transform="translate(105.6505,162.3769)"
           style="display:inline"><path
             d="m 0,0 c 2.697,0 4.891,-2.194 4.891,-4.891 0,-2.696 -2.194,-4.89 -4.891,-4.89 -2.697,0 -4.89,2.194 -4.89,4.89 C -4.89,-2.194 -2.697,0 0,0"
             style="fill:#545455;fill-opacity:1;fill-rule:nonzero;stroke:none"
             id="path70" /></g><g
           id="g72"
           transform="translate(67.6087,164.2951)"
           style="display:inline"><path
             d="m 0,0 c 4.191,0 8.331,-1.324 11.657,-3.729 1.12,-0.809 1.433,-1.966 0.837,-3.093 -0.333,-0.632 -1.172,-1.09 -1.995,-1.09 -0.374,0 -0.707,0.098 -0.964,0.284 -0.888,0.642 -1.813,1.201 -2.75,1.661 -0.152,0.074 -0.305,0.145 -0.459,0.216 L 6.123,-5.66 5.864,-5.558 C 5.383,-5.376 4.887,-5.21 4.387,-5.066 3.889,-4.922 3.38,-4.797 2.876,-4.696 2.693,-4.659 2.508,-4.627 2.324,-4.595 l -0.281,0.047 -0.061,0.007 -0.178,0.02 c -0.599,0.06 -1.217,0.091 -1.838,0.091 -0.416,0 -0.844,-0.014 -1.27,-0.041 -0.038,-0.003 -0.076,-0.004 -0.113,-0.004 -1.171,0 -2.01,1.164 -2.058,2.251 -0.057,1.258 1.129,2.113 2.26,2.186 C -0.814,-0.013 -0.406,0 0,0"
             style="fill:#545455;fill-opacity:1;fill-rule:nonzero;stroke:none"
             id="path74" /></g><g
           id="g76"
           transform="translate(56.2959,206.3934)"
           style="display:inline"><path
             d="m 0,0 c 3.974,0 7.85,-0.936 11.209,-2.708 1.38,-0.727 1.963,-2.275 1.357,-3.601 -0.424,-0.927 -1.488,-1.6 -2.53,-1.6 -0.376,0 -0.727,0.085 -1.044,0.252 -0.993,0.523 -1.943,0.942 -2.905,1.281 -0.155,0.054 -0.31,0.105 -0.496,0.164 -0.04,0.009 -0.187,0.05 -0.293,0.08 l -0.121,0.033 c -0.507,0.133 -1.028,0.25 -1.548,0.347 -0.946,0.177 -1.943,0.295 -2.97,0.353 l -0.158,0.003 -0.17,0.001 c -0.207,0 -0.415,-0.002 -0.622,-0.007 -0.48,-0.012 -0.961,-0.039 -1.428,-0.079 -1.003,-0.087 -2.007,-0.24 -2.982,-0.456 l -0.061,-0.013 -0.031,-0.004 -0.031,-0.01 -0.166,-0.05 -0.31,-0.09 c -0.148,-0.042 -0.297,-0.085 -0.444,-0.13 -0.461,-0.143 -0.915,-0.3 -1.35,-0.466 -0.495,-0.189 -0.986,-0.397 -1.461,-0.619 -0.117,-0.054 -0.232,-0.111 -0.348,-0.168 l -0.217,-0.106 -0.201,-0.098 -0.086,-0.05 c -0.832,-0.472 -1.651,-1.023 -2.504,-1.682 -0.429,-0.331 -0.959,-0.506 -1.533,-0.506 -0.888,0 -1.749,0.424 -2.247,1.108 -0.855,1.173 -0.584,2.875 0.604,3.793 C -10.891,-1.786 -5.534,0 0,0"
             style="fill:#545455;fill-opacity:1;fill-rule:nonzero;stroke:none"
             id="path78" /></g><g
           id="g80"
           transform="translate(56.6592,221.9266)"
           style="display:inline"><path
             d="m 0,0 c 10.023,0 19.378,-4.694 25.025,-12.556 0.857,-1.194 0.585,-2.93 -0.595,-3.789 -0.45,-0.328 -0.995,-0.501 -1.576,-0.501 -0.891,0 -1.718,0.409 -2.21,1.095 -0.44,0.612 -0.857,1.152 -1.277,1.652 -0.222,0.264 -0.452,0.522 -0.696,0.789 -0.053,0.052 -0.228,0.235 -0.318,0.329 l -0.062,0.065 c -0.975,0.967 -2.042,1.873 -3.172,2.694 -0.241,0.175 -0.484,0.346 -0.73,0.514 -0.027,0.018 -0.138,0.089 -0.264,0.171 -0.145,0.093 -0.313,0.2 -0.387,0.25 l -0.008,0.01 -0.055,0.033 c -0.524,0.314 -1.05,0.608 -1.563,0.874 -1.187,0.615 -2.428,1.155 -3.689,1.603 C 8.235,-6.7 8.047,-6.635 7.855,-6.571 L 7.572,-6.48 7.478,-6.452 c -0.191,0.055 -0.383,0.108 -0.575,0.16 -0.671,0.179 -1.355,0.336 -2.034,0.466 -1.122,0.216 -2.34,0.366 -3.843,0.474 l -0.201,0.009 c -0.154,0.003 -0.308,0.006 -0.497,0.006 -0.286,0 -0.572,-0.004 -0.858,-0.013 -0.69,-0.02 -1.389,-0.069 -2.077,-0.143 -0.697,-0.076 -1.39,-0.178 -2.062,-0.306 -0.231,-0.044 -0.461,-0.093 -0.69,-0.143 l -0.321,-0.07 0.003,-0.017 C -5.755,-6.049 -5.838,-6.07 -5.915,-6.089 -6.048,-6.123 -6.16,-6.152 -6.191,-6.161 -6.519,-6.253 -6.85,-6.3 -7.177,-6.3 c -1.21,0 -2.141,0.612 -2.553,1.678 -0.265,0.688 -0.204,1.569 0.161,2.298 0.306,0.613 0.788,1.039 1.357,1.199 C -5.563,-0.379 -2.8,0 0,0"
             style="fill:#545455;fill-opacity:1;fill-rule:nonzero;stroke:none"
             id="path82" /></g><g
           id="g84"
           transform="translate(92.4646,254.145)"
           style="display:inline"><path
             d="m 0,0 c 0.947,0 1.867,-0.515 2.401,-1.344 1.881,-2.919 3.57,-5.949 5.019,-9.006 5.288,-11.154 8.09,-23.473 8.103,-35.625 10e-4,-1.451 -1.196,-2.641 -2.727,-2.71 l -0.099,-0.002 c -1.357,0 -2.594,1.293 -2.595,2.713 -0.015,14.862 -4.302,29.357 -12.398,41.92 -0.353,0.548 -0.456,1.233 -0.289,1.929 0.178,0.745 0.653,1.406 1.27,1.766 C -0.909,-0.121 -0.466,0 0,0"
             style="fill:#545455;fill-opacity:1;fill-rule:nonzero;stroke:none"
             id="path86" /></g></g></g></g></svg>
