<svg width="144" height="115" viewBox="0 0 144 115" fill="none" xmlns="http://www.w3.org/2000/svg">
                        <path fill-rule="evenodd" clip-rule="evenodd" d="M69.8082 0.0616968C59.64 -0.451699 48.666 2.24793 41.1664 7.82595C33.4243 13.2432 30.2286 20.9662 29.5108 24.6778C26.402 38.5503 33.9953 48.62 44.7553 50.4407C35.1504 45.0956 32.081 37.2866 34.3144 25.828C34.9436 22.7975 37.4741 16.5021 44.0997 11.8294C50.5224 7.04325 60.2959 4.55219 69.5864 5.00829C88.9593 5.41282 100.657 18.1065 101.173 18.7353C101.207 18.7774 101.285 18.8609 101.4 18.9843C103.277 20.9921 115.032 33.5701 107.8 50.3412C105.983 54.5553 103.795 57.8568 99.4331 59.8368C99.2304 59.9586 98.9538 60.0993 98.6291 60.2645C96.8958 61.146 93.7903 62.7256 93.2221 65.8637C93.1227 66.2893 93.0971 66.6855 93.0754 67.0205C93.0313 67.7004 93.0036 68.1281 92.4096 68.0374C86.3261 66.0441 80.7305 62.6516 77.5 60.6931L77.5 60.6931C76.9443 60.3562 76.4587 60.0618 76.0526 59.8242L73.1555 57.9749C73.1555 57.9749 72.205 57.3285 70.387 57.6059C68.9742 57.8247 67.7141 57.9264 66.4517 58.0024C63.9306 58.0872 61.5603 58.1341 59.3595 57.7285C55.0772 57.0088 50.5984 55.3027 46.5261 51.7104C49.5057 56.4026 53.4813 59.4712 58.493 61.2357C60.9815 62.1307 63.6363 62.4341 66.5015 62.5671C67.9474 62.5911 69.4325 62.5671 71.0211 62.3954L73.4075 63.9961C74.1006 64.3831 74.8837 64.8644 75.7738 65.4115C79.1432 67.4824 84.0457 70.4956 91.3987 72.9006C91.4421 72.9078 91.4875 72.9155 91.5346 72.9234C92.7336 73.1265 95.1067 73.5285 96.9333 71.2905C97.8715 70.1403 97.9442 68.4983 97.9829 67.6243C97.991 67.4395 97.9977 67.289 98.0107 67.1848C98.1382 66.1868 98.8051 65.8302 100.29 65.0361L100.29 65.036C100.77 64.7798 101.334 64.4781 101.993 64.0946C106.661 62.1376 110.81 56.916 112.445 52.1241C116.354 42.6022 115.139 32.1578 111.712 25.3069C106.133 14.1486 91.0767 0.475393 69.8082 0.0616968ZM68.3068 25.2335C66.3326 26.3892 63.7877 25.726 62.6398 23.7529C61.5023 21.7904 62.1484 19.267 64.1252 18.1141C66.0936 16.9587 68.6402 17.6303 69.793 19.5947C70.951 21.5452 70.0534 24.2331 68.3068 25.2335ZM74.0253 15.1856L71.0249 16.1806C70.2617 15.5248 69.3805 15.028 68.4406 14.7287L67.7225 11.6033L64.5101 11.6426L63.8778 14.745C62.9724 14.9871 61.9128 15.6039 61.3069 16.2244L58.245 15.287L56.6722 18.0723L59.0592 20.1798C58.8564 21.1395 58.848 22.148 59.0532 23.1326L56.7059 25.3077L58.3394 28.0529L61.3026 27.0608C62.0817 27.7698 62.9807 28.2826 63.9569 28.5938L64.6499 31.6381L67.8574 31.5971L68.4642 28.6353C69.3753 28.36 70.4285 27.7031 71.1906 27.0516L74.1294 27.9463L75.6835 25.1573L73.384 23.1223C73.5882 22.1311 73.5816 21.1043 73.3489 20.0723L75.657 17.9365L74.0253 15.1856ZM85.8962 26.741C83.3124 27.5678 81.2244 29.3555 79.9879 31.742C78.7608 34.1313 78.539 36.857 79.3687 39.4171C80.1964 41.977 81.9729 44.0492 84.3757 45.2911C86.7806 46.515 89.5148 46.7293 92.0879 45.9099C94.6619 45.0805 96.7445 43.3134 97.9951 40.9124C99.2123 38.5287 99.4431 35.7993 98.6102 33.2424C96.8866 27.952 91.1892 25.0392 85.8962 26.741ZM72.8968 32.8029L73.9239 29.701L77.0715 29.7388C77.623 28.7436 78.2885 27.8176 79.0477 27.0028L78.0439 24.062L80.7198 22.1319L83.2189 24.0196C84.0026 23.5898 85.5165 23.134 86.4483 22.9793L87.3807 20.0084L90.667 20.0121L91.5934 23.0002C92.6975 23.222 93.7813 23.5692 94.804 24.0454L97.3257 22.1783L99.9822 24.1081L98.9635 27.0661C99.7368 27.8761 100.408 28.7911 100.947 29.795L104.064 29.7549L105.084 32.8616L102.54 34.6525C102.682 35.7916 102.647 36.9135 102.51 38.0314L105.083 39.8466L104.05 42.9539L100.898 42.9147C100.352 43.9157 99.706 44.831 98.9365 45.6446L99.925 48.5981L97.2601 50.5064L94.762 48.6468C93.8463 49.0932 92.508 49.5186 91.5393 49.6785L90.6063 52.6497L87.3059 52.644L86.3795 49.659C85.2837 49.4381 84.2029 49.1009 83.1735 48.6041L80.6642 50.4752L77.9982 48.5405L79.0114 45.5604C78.2407 44.7453 77.5589 43.8575 77.0143 42.8576L73.8974 42.8986L72.8798 39.7652L75.4331 37.9898C75.2916 36.8656 75.3284 35.7337 75.4722 34.6261L72.8968 32.8029ZM18.5117 104.265H24.424V109.683C23.2243 109.982 21.5963 110.153 19.5397 110.153C16.2837 110.153 15.2124 109.512 15.2124 107.123C15.2124 105.033 16.1554 104.265 18.5117 104.265ZM12.1277 113.096C13.4987 113.992 15.8127 114.461 19.1114 114.461C23.353 114.461 26.5662 114.163 28.7509 113.523C29.308 113.31 29.6078 112.925 29.6078 112.286V97.4387C29.6078 92.66 26.9089 90.4416 19.5828 90.4416C16.8834 90.4416 14.527 90.6122 12.5135 90.9963C12.0425 91.1243 11.9138 91.1672 11.9138 91.6789V94.2814C11.9138 94.7935 12.0425 94.9215 12.5565 94.9215H19.5828C23.0103 94.9215 24.424 95.9455 24.424 98.3346V100.553H18.2118C12.5991 100.553 10.0714 102.174 10.0714 107.337C10.0714 110.238 10.7567 112.158 12.1277 113.096ZM60.2834 110.153C62.34 110.153 63.9678 109.982 65.1676 109.683V104.265H59.2551C56.8989 104.265 55.9561 105.033 55.9561 107.123C55.9561 109.512 57.0274 110.153 60.2834 110.153ZM50.8148 107.337C50.8148 102.174 53.3428 100.553 58.9557 100.553H65.1676V98.3346C65.1676 95.9455 63.754 94.9215 60.3265 94.9215H45.0313V113.608C45.0313 114.035 44.8171 114.248 44.3885 114.248H40.4895C40.0614 114.248 39.8472 114.035 39.8472 113.608V94.7509H36.9337C36.4627 94.7509 36.2483 94.5374 36.2483 94.1108V91.3376C36.2483 90.9106 36.4627 90.6975 36.9337 90.6975H39.8472V86.8577C39.8472 84.4686 40.6609 82.8899 42.1608 82.2071C43.7029 81.5244 44.8171 81.3968 46.7449 81.3968C47.9872 81.3968 49.4008 81.5244 50.9434 81.781C51.3721 81.8659 51.5861 82.1222 51.5861 82.5486V85.2365C51.5861 85.663 51.3721 85.8765 50.9007 85.8765H48.0729C45.8021 85.8765 45.0313 86.1752 45.0313 87.8817V90.6975H48.6696C52.7298 90.5221 58.4706 90.4416 60.3265 90.4416C67.6524 90.4416 70.3513 92.66 70.3513 97.4386V112.286C70.3513 112.926 70.0519 113.31 69.4946 113.523C67.3097 114.163 64.0967 114.461 59.8551 114.461C56.5562 114.461 54.2424 113.992 52.8714 113.096C51.5004 112.158 50.8148 110.238 50.8148 107.337ZM88.9879 108.531C88.3882 109.512 86.9316 109.982 84.618 109.982C83.0328 109.982 81.4044 109.854 79.8196 109.641V94.9214H84.4893C86.8459 94.9214 88.3026 95.3907 88.9449 96.3294C89.5879 97.2678 89.8879 99.3158 89.8879 102.473C89.8879 105.545 89.5879 107.55 88.9879 108.531ZM85.3034 90.4415C83.0754 90.4415 81.2332 90.5268 79.8196 90.6977V82.2928C79.8196 81.8658 79.6055 81.6527 79.1767 81.6527H75.2351C74.8071 81.6527 74.5927 81.8658 74.5927 82.2928V112.798C74.5927 113.31 74.8497 113.608 75.4066 113.694C78.5343 114.206 81.5759 114.462 84.5753 114.462C89.031 114.462 91.4729 113.907 93.0578 112.03C94.6432 110.11 95.0716 107.422 95.0716 102.473C95.0716 97.6946 94.4288 94.4944 93.1439 92.8736C91.8584 91.252 89.2452 90.4415 85.3034 90.4415ZM105.953 90.4416C108.395 90.4416 110.109 90.6122 111.18 90.9106C111.651 91.0388 111.866 91.2947 111.866 91.6789V94.2814C111.866 94.7509 111.609 94.964 111.137 94.9215H107.239C104.625 94.9215 103.897 95.3477 103.897 97.2251V113.608C103.897 114.035 103.683 114.248 103.254 114.248H99.3557C98.9273 114.248 98.7131 114.035 98.7131 113.608V95.9027C98.7131 93.5134 99.6127 91.9346 101.198 91.2521C102.783 90.5694 104.026 90.4416 105.953 90.4416ZM116.792 86.8578C118.849 86.8578 119.877 85.8766 119.877 83.9137C119.877 81.9515 118.849 80.9701 116.792 80.9701C114.778 80.9701 113.665 82.0366 113.665 83.9137C113.665 85.7909 114.778 86.8578 116.792 86.8578ZM114.821 90.6551H118.72C119.149 90.6551 119.363 90.8682 119.363 91.2948V113.608C119.363 114.035 119.149 114.248 118.72 114.248H114.821C114.393 114.248 114.179 114.035 114.179 113.608V91.2948C114.179 90.8682 114.393 90.6551 114.821 90.6551ZM138.856 114.248H143.012C144.083 114.248 144.211 113.608 143.74 113.096L134.315 99.9555L141.555 91.4655C142.027 90.9105 141.898 90.6552 141.17 90.6552H136.543C136.157 90.6552 135.857 90.783 135.643 91.0814L129.045 98.889V82.3354C129.045 81.8658 128.831 81.6527 128.402 81.6527H124.504C124.075 81.6527 123.861 81.8658 123.861 82.3354V113.566C123.861 114.035 124.075 114.248 124.504 114.248H128.402C128.831 114.248 129.045 114.035 129.045 113.566V101.108L137.914 113.779C138.17 114.078 138.47 114.248 138.856 114.248ZM5.54513 108.574C5.70867 108.735 6.16911 109.076 7.209 109.172C7.53524 109.202 7.78867 109.476 7.79078 109.803L7.81695 113.644C7.81948 114.008 7.51414 114.314 7.14908 114.293C4.97791 114.172 3.19143 113.455 1.92533 112.201C1.04644 111.332 0 109.761 0 107.209V82.252C0 81.8977 0.28825 81.6106 0.644027 81.6106H4.49131C4.84708 81.6106 5.13533 81.8977 5.13533 82.252V107.209C5.13533 108.166 5.44263 108.472 5.54453 108.574L5.54513 108.574Z" fill="white"></path>
                      </svg>